# xmcd
#
# Track frame offsets:
#	225
#	10526
#	20749
#	32883
#	43729
#	56741
#	70167
#	82164
#	92769
#	105272
#	119213
#	136659
#
# Disc length: 2085 seconds
#
# Revision: 0
# Processed by: cddbd v1.4PL0 Copyright (c) Steve Scherf et al.
# Submitted via: dBpowerAMP V4.0
#
DISCID=a008220c
DTITLE=Jan Howard - Through The Years - Sampler - Collection Edition
DYEAR=1900
DGENRE=Country
TTITLE0=Wrong Comany (With Wynn Stewart)
TTITLE1=The One You Slip Around With
TTITLE2=Too Many Teardrops Too Late
TTITLE3=Evil On Your Mind
TTITLE4=Bad Seed
TTITLE5=When We Tried
TTITLE6=Love Is Like A Spinning Wheel
TTITLE7=Rock Me Back To Little Rock
TTITLE8=For Loving You (With Bill Anderson)
TTITLE9=Dissatisfied (With Bill Anderson)
TTITLE10=Ozark Mountain Jubilee
TTITLE11=Wind Beneath My Wings
EXTD=Through The Years - Sampler - Collection Edition\n
EXTT0=
EXTT1=
EXTT2=
EXTT3=
EXTT4=
EXTT5=
EXTT6=
EXTT7=
EXTT8=
EXTT9=
EXTT10=
EXTT11=
PLAYORDER=
